<svg width="123" height="81" viewBox="0 0 123 81" fill="none" xmlns="http://www.w3.org/2000/svg">
<path d="M122.25 62C122.25 64.2698 120.759 66.5736 117.725 68.79C114.706 70.9948 110.29 73.0117 104.766 74.7184C93.726 78.1291 78.4291 80.25 61.5 80.25C44.5709 80.25 29.274 78.1291 18.2343 74.7184C12.7099 73.0117 8.29389 70.9948 5.27535 68.79C2.24086 66.5736 0.75 64.2698 0.75 62C0.75 59.7302 2.24086 57.4264 5.27535 55.21C8.29389 53.0052 12.7099 50.9883 18.2343 49.2816C29.274 45.8709 44.5709 43.75 61.5 43.75C78.4291 43.75 93.726 45.8709 104.766 49.2816C110.29 50.9883 114.706 53.0052 117.725 55.21C120.759 57.4264 122.25 59.7302 122.25 62Z" fill="#949C9E" stroke="black" stroke-width="1.5"/>
<ellipse cx="62" cy="60.5" rx="56" ry="14.5" fill="white"/>
<path d="M54.9877 10.4876C53.6216 10.6247 52.2926 10.8007 51 11C51 7.36019 53.0575 1 61.2875 1C69.5174 1 71.1817 7.36019 70.985 11C69.6966 10.7903 68.3751 10.6187 67.0201 10.4876C67.1632 8.55094 66.2171 4.67768 61.2875 4.67768C56.3579 4.67768 55.0337 8.55094 54.9877 10.4876Z" fill="#949C9E" stroke="black" stroke-width="1.5" stroke-linejoin="round"/>
<path d="M13.3902 61.742C55.7691 75.4148 93.6203 66.7992 110.616 61.705C111.444 61.4568 112.01 60.7033 111.99 59.8394C111.616 43.6939 100.455 15.5696 71.1953 10.3442C69.9818 10.1275 68.7373 9.95013 67.4611 9.81468C65.9209 9.65122 64.3347 9.54874 62.7014 9.51161C60.4158 9.45965 58.226 9.58381 56.129 9.81468C54.8424 9.95634 53.5907 10.1382 52.3734 10.3442C21.6535 15.5419 12.6784 43.8334 12.0361 59.8326C12.0013 60.6994 12.5646 61.4756 13.3902 61.742Z" fill="#949C9E" stroke="black" stroke-width="1.5" stroke-linejoin="round"/>
<path d="M22.7979 53.6743C23.1108 47.1827 27.4924 32.1096 42.5151 23.7497" stroke="white" stroke-width="4" stroke-linecap="round" stroke-linejoin="round"/>
<path d="M51.4346 19.9497C53.3124 18.9997 59.4154 18.5248 62.7016 19.4747" stroke="white" stroke-width="4" stroke-linecap="round" stroke-linejoin="round"/>
</svg>
