<svg width="16" height="17" viewBox="0 0 16 17" fill="none" xmlns="http://www.w3.org/2000/svg">
<path fill-rule="evenodd" clip-rule="evenodd" d="M4.38314 1.84309C6.57106 0.700547 9.26038 0.720517 11.4278 1.89541C13.5739 3.09422 14.8782 5.23376 14.866 7.5353C14.8161 9.82174 13.4175 11.971 11.6692 13.6325C10.6601 14.5958 9.53135 15.4475 8.30586 16.1704C8.17964 16.236 8.04139 16.2799 7.89793 16.3C7.75985 16.2947 7.62538 16.258 7.50665 16.1933C5.6357 15.1071 3.99431 13.7206 2.66143 12.1006C1.54613 10.7482 0.912485 9.11441 0.846558 7.42098C0.84511 5.11502 2.19521 2.98564 4.38314 1.84309ZM5.64781 8.37547C6.01584 9.19092 6.88456 9.72282 7.84833 9.72283C8.47972 9.7269 9.08665 9.49961 9.5339 9.09159C9.98115 8.68358 10.2316 8.12874 10.2293 7.55071C10.2327 6.6684 9.65472 5.87125 8.76528 5.53146C7.87584 5.19168 6.85037 5.37628 6.16769 5.99908C5.485 6.62188 5.27977 7.56002 5.64781 8.37547Z" fill="#EA5555"/>
<path d="M11.4278 1.89541L11.6716 1.45886L11.6661 1.45583L11.4278 1.89541ZM4.38314 1.84309L4.61459 2.2863L4.38314 1.84309ZM14.866 7.5353L15.366 7.54622L15.366 7.53794L14.866 7.5353ZM11.6692 13.6325L11.3248 13.27L11.3239 13.2708L11.6692 13.6325ZM8.30586 16.1704L8.53642 16.6141L8.54833 16.6079L8.55989 16.6011L8.30586 16.1704ZM7.89793 16.3L7.87881 16.7996L7.92319 16.8013L7.96718 16.7952L7.89793 16.3ZM7.50665 16.1933L7.25552 16.6259L7.26726 16.6323L7.50665 16.1933ZM2.66143 12.1006L3.04755 11.7829L3.04717 11.7824L2.66143 12.1006ZM0.846559 7.42098L0.346559 7.42129L0.346565 7.43086L0.346937 7.44043L0.846559 7.42098ZM7.84833 9.72283L7.85156 9.22283H7.84834L7.84833 9.72283ZM5.64781 8.37547L5.19207 8.58115V8.58116L5.64781 8.37547ZM9.5339 9.09159L9.19692 8.72221V8.72221L9.5339 9.09159ZM10.2293 7.55071L9.7293 7.5488L9.72932 7.55265L10.2293 7.55071ZM8.76528 5.53146L8.94371 5.06439V5.06438L8.76528 5.53146ZM6.16769 5.99908L6.50467 6.36846L6.16769 5.99908ZM11.6661 1.45583C9.35223 0.201568 6.48684 0.180459 4.15169 1.39989L4.61459 2.2863C6.65529 1.22063 9.16854 1.23947 11.1895 2.33498L11.6661 1.45583ZM15.366 7.53794C15.3792 5.0395 13.9633 2.73907 11.6716 1.45889L11.1839 2.33192C13.1844 3.44938 14.3772 5.42802 14.3661 7.53266L15.366 7.53794ZM12.0136 13.9949C13.8051 12.2924 15.3118 10.0249 15.3659 7.54622L14.3662 7.52438C14.3204 9.61859 13.0299 11.6496 11.3248 13.27L12.0136 13.9949ZM8.55989 16.6011C9.81767 15.8592 10.9772 14.9844 12.0145 13.9941L11.3239 13.2708C10.3431 14.2072 9.24503 15.0359 8.05182 15.7398L8.55989 16.6011ZM7.96718 16.7952C8.1659 16.7674 8.35882 16.7064 8.53642 16.6141L8.07529 15.7268C8.00047 15.7657 7.91689 15.7925 7.82868 15.8048L7.96718 16.7952ZM7.26726 16.6323C7.45526 16.7348 7.66535 16.7915 7.87881 16.7996L7.91705 15.8004C7.85435 15.798 7.7955 15.7813 7.74603 15.7543L7.26726 16.6323ZM2.27532 12.4182C3.64721 14.0857 5.33479 15.5106 7.25561 16.6257L7.75769 15.7609C5.9366 14.7036 4.34141 13.3555 3.04755 11.7829L2.27532 12.4182ZM0.346937 7.44043C0.417275 9.24717 1.09334 10.9851 2.2757 12.4187L3.04717 11.7824C1.99891 10.5114 1.4077 8.98165 1.34618 7.40153L0.346937 7.44043ZM4.15169 1.39989C1.81309 2.62112 0.344984 4.91321 0.346559 7.42129L1.34656 7.42066C1.34524 5.31684 2.57734 3.35016 4.61459 2.2863L4.15169 1.39989ZM7.84834 9.22283C7.06171 9.22283 6.38303 8.78903 6.10354 8.16978L5.19207 8.58116C5.64866 9.5928 6.70741 10.2228 7.84833 10.2228L7.84834 9.22283ZM9.19692 8.72221C8.84691 9.04152 8.3631 9.22614 7.85156 9.22284L7.84511 10.2228C8.59633 10.2277 9.32639 9.9577 9.87088 9.46098L9.19692 8.72221ZM9.72932 7.55265C9.73098 7.98204 9.54541 8.40429 9.19692 8.72221L9.87088 9.46098C10.4169 8.96287 10.7321 8.27544 10.7293 7.54877L9.72932 7.55265ZM8.58684 5.99854C9.30227 6.27185 9.73181 6.89539 9.72932 7.5488L10.7293 7.55262C10.7336 6.4414 10.0072 5.47065 8.94371 5.06439L8.58684 5.99854ZM6.50467 6.36846C7.04251 5.8778 7.86708 5.72358 8.58684 5.99854L8.94371 5.06438C7.88459 4.65978 6.65824 4.87476 5.83071 5.6297L6.50467 6.36846ZM6.10354 8.16978C5.82845 7.56027 5.97462 6.85202 6.50467 6.36846L5.83071 5.6297C4.99539 6.39174 4.73109 7.55977 5.19207 8.58115L6.10354 8.16978Z" fill="#1F1F1F"/>
</svg>
