<svg width="34" height="25" viewBox="0 0 34 25" fill="none" xmlns="http://www.w3.org/2000/svg">
<path d="M1 3.898C1 2.87292 1 2.36038 1.20266 1.97025C1.37343 1.64149 1.64149 1.37343 1.97025 1.20266C2.36038 1 2.87292 1 3.898 1H30.102C31.1271 1 31.6396 1 32.0298 1.20266C32.3585 1.37343 32.6266 1.64149 32.7973 1.97025C33 2.36038 33 2.87292 33 3.898V20.9591C33 21.9842 33 22.4968 32.7973 22.8869C32.6266 23.2157 32.3585 23.4837 32.0298 23.6545C31.6396 23.8571 31.1271 23.8571 30.102 23.8571H3.898C2.87292 23.8571 2.36038 23.8571 1.97025 23.6545C1.64149 23.4837 1.37343 23.2157 1.20266 22.8869C1 22.4968 1 21.9842 1 20.9591V3.898Z" stroke="#222222" stroke-width="1.5"/>
<path d="M1 8.31427L33 8.31427" stroke="#222222" stroke-width="1.5" stroke-linecap="round"/>
</svg>
