<svg width="170" height="36" viewBox="0 0 170 36" fill="none" xmlns="http://www.w3.org/2000/svg">
<path d="M17.7332 34.3053L17.7334 34.3054L17.7355 34.2972L22.5252 15.6454V34.15C22.5252 34.4813 22.632 34.7708 22.8683 34.9724C23.098 35.1683 23.414 35.25 23.7717 35.25H28.4058C28.7636 35.25 29.0796 35.1683 29.3093 34.9724C29.5456 34.7708 29.6524 34.4813 29.6524 34.15V1.85C29.6524 1.51869 29.5456 1.22916 29.3093 1.0276C29.0796 0.831693 28.7636 0.75 28.4058 0.75H21.8284C21.495 0.75 21.2029 0.821155 20.968 0.987006C20.731 1.1543 20.579 1.39893 20.4923 1.69468L20.4922 1.69465L20.4903 1.70179L15.2012 21.9412L9.91208 1.70179L9.91219 1.70176L9.91011 1.69468C9.82343 1.39893 9.67144 1.1543 9.43443 0.987006C9.19947 0.821155 8.90738 0.75 8.57397 0.75H1.99658C1.63883 0.75 1.32283 0.831693 1.09314 1.0276C0.856819 1.22916 0.75 1.51869 0.75 1.85V34.15C0.75 34.4813 0.856819 34.7708 1.09314 34.9724C1.32283 35.1683 1.63883 35.25 1.99658 35.25H6.58082C6.93857 35.25 7.25457 35.1683 7.48426 34.9724C7.72058 34.7708 7.8274 34.4813 7.8274 34.15V15.6454L12.6171 34.2972L12.617 34.2972L12.6193 34.3053C12.706 34.6011 12.858 34.8457 13.095 35.013C13.33 35.1788 13.6221 35.25 13.9555 35.25H16.3971C16.7305 35.25 17.0226 35.1788 17.2575 35.013C17.4946 34.8457 17.6465 34.6011 17.7332 34.3053ZM59.6944 0.75H54.7115C54.3846 0.75 54.0989 0.807893 53.8608 0.950035C53.6203 1.09365 53.4525 1.30876 53.3368 1.57882L47.9846 13.2766L42.6325 1.57895C42.5168 1.30883 42.349 1.09368 42.1084 0.950035C41.8703 0.807893 41.5847 0.75 41.2577 0.75H36.2749C35.8718 0.75 35.506 0.851318 35.2927 1.10452C35.0622 1.37806 35.0786 1.73891 35.2532 2.08774C35.2536 2.08841 35.2539 2.08908 35.2542 2.08975L44.3463 20.9471V34.15C44.3463 34.4813 44.4531 34.7708 44.6894 34.9724C44.9191 35.1683 45.2351 35.25 45.5928 35.25H50.3764C50.7341 35.25 51.0502 35.1683 51.2798 34.9724C51.5162 34.7708 51.623 34.4813 51.623 34.15V20.9471L60.715 2.08975C60.7154 2.08907 60.7157 2.0884 60.716 2.08773C60.8907 1.73891 60.9071 1.37806 60.6766 1.10453C60.4632 0.851318 60.0975 0.75 59.6944 0.75ZM81.2643 1.68V34.32C81.2643 34.5969 81.3393 34.8499 81.5452 35.0255C81.7422 35.1936 82.0132 35.25 82.3116 35.25H94.2705C96.6456 35.25 98.5066 34.7117 99.7769 33.6283C101.054 32.5391 101.696 30.9317 101.696 28.88V7.1625C101.696 5.11093 101.054 3.49345 99.7778 2.39374C98.5078 1.29938 96.6467 0.75 94.2705 0.75H82.3116C82.0031 0.75 81.7342 0.821405 81.5408 0.994202C81.3426 1.17134 81.2643 1.41816 81.2643 1.68ZM92.8753 29.14H88.541V6.86H92.8753C93.4893 6.86 93.9195 7.00146 94.1937 7.23967C94.4618 7.47258 94.6184 7.83098 94.6184 8.3525V27.69C94.6184 28.2111 94.4622 28.5567 94.1972 28.7786C93.9239 29.0074 93.4933 29.14 92.8753 29.14ZM129.052 5.93V1.68C129.052 1.43247 128.994 1.18155 128.798 0.998306C128.607 0.81882 128.332 0.75 128.005 0.75H109.668C109.397 0.75 109.146 0.827149 108.959 0.994203C108.769 1.16424 108.67 1.4054 108.67 1.68V34.32C108.67 34.5946 108.769 34.8358 108.959 35.0058C109.146 35.1729 109.397 35.25 109.668 35.25H128.005C128.332 35.25 128.607 35.1812 128.798 35.0017C128.994 34.8185 129.052 34.5675 129.052 34.32V30.07C129.052 29.8075 128.997 29.5498 128.794 29.3685C128.6 29.1941 128.322 29.14 128.005 29.14H115.797V21.055H125.065C125.354 21.055 125.62 20.981 125.817 20.8057C126.017 20.6265 126.112 20.3718 126.112 20.0825V15.875C126.112 15.5857 126.017 15.331 125.817 15.1518C125.62 14.9765 125.354 14.9025 125.065 14.9025H115.797V6.9025H128.005C128.342 6.9025 128.618 6.8185 128.806 6.62533C128.994 6.43311 129.052 6.17732 129.052 5.93ZM154.913 29.14H143.304V1.68C143.304 1.41816 143.226 1.17134 143.027 0.994202C142.834 0.821404 142.565 0.75 142.257 0.75H137.075C136.785 0.75 136.522 0.823965 136.327 0.990414C136.127 1.16122 136.027 1.40484 136.027 1.68V34.32C136.027 34.6104 136.123 34.8596 136.331 35.0292C136.53 35.1913 136.795 35.25 137.075 35.25H154.913C155.212 35.25 155.483 35.1936 155.68 35.0255C155.886 34.8499 155.961 34.5969 155.961 34.32V30.07C155.961 29.8082 155.882 29.5613 155.684 29.3842C155.491 29.2114 155.222 29.14 154.913 29.14ZM168.203 0.75H163.021C162.712 0.75 162.443 0.821405 162.25 0.994202C162.052 1.17134 161.973 1.41816 161.973 1.68V34.32C161.973 34.5818 162.052 34.8287 162.25 35.0058C162.443 35.1786 162.712 35.25 163.021 35.25H168.203C168.492 35.25 168.755 35.176 168.95 35.0096C169.151 34.8388 169.25 34.5952 169.25 34.32V1.68C169.25 1.40484 169.151 1.16122 168.95 0.990414C168.755 0.823965 168.492 0.75 168.203 0.75Z" fill="black" stroke="black" stroke-width="0.5"/>
</svg>
