<svg width="31" height="27" viewBox="0 0 31 27" fill="none" xmlns="http://www.w3.org/2000/svg">
<path d="M19.2084 25.875V18.625C19.2084 18.0727 18.7606 17.625 18.2084 17.625H12.2917C11.7394 17.625 11.2917 18.0727 11.2917 18.625V25.875" stroke="#1F1F1F" stroke-width="2" stroke-linecap="round" stroke-linejoin="round"/>
<path d="M4.16669 12.125V23.875C4.16669 24.8178 4.16669 25.2892 4.45958 25.5821C4.75247 25.875 5.22388 25.875 6.16668 25.875H24.3334C25.2762 25.875 25.7476 25.875 26.0405 25.5821C26.3334 25.2892 26.3334 24.8178 26.3334 23.875V12.125" stroke="#1F1F1F" stroke-width="2"/>
<path d="M3.75019 2.57171C3.95067 1.8753 4.05091 1.5271 4.318 1.32605C4.5851 1.125 4.94744 1.125 5.67213 1.125H24.8279C25.5526 1.125 25.9149 1.125 26.182 1.32605C26.4491 1.5271 26.5493 1.8753 26.7498 2.57171L28.765 9.57171C29.102 10.7424 29.2705 11.3278 28.9705 11.7264C28.6704 12.125 28.0613 12.125 26.843 12.125H26.3601C24.8882 12.125 24.1523 12.125 23.6188 11.7246C23.5689 11.6872 23.5208 11.6474 23.4747 11.6055C22.9809 11.157 22.8422 10.4343 22.5648 8.98879V8.98879C22.4943 8.6216 22.4591 8.43801 22.3843 8.431C22.3781 8.43042 22.3719 8.43042 22.3657 8.431C22.2909 8.43801 22.2557 8.6216 22.1852 8.98879L22.1056 9.40383C21.9053 10.4475 21.8051 10.9694 21.5145 11.3463C21.3319 11.5831 21.0985 11.7759 20.8315 11.9106C20.4066 12.125 19.8752 12.125 18.8125 12.125V12.125C17.7498 12.125 17.2184 12.125 16.7935 11.9106C16.5265 11.7759 16.2931 11.5831 16.1105 11.3463C15.8199 10.9694 15.7197 10.4475 15.5194 9.40383L15.4398 8.98879C15.3693 8.6216 15.3341 8.43801 15.2593 8.431C15.2531 8.43042 15.2469 8.43042 15.2407 8.431C15.1659 8.43801 15.1307 8.6216 15.0602 8.98879L14.9806 9.40383C14.7803 10.4475 14.6801 10.9694 14.3895 11.3463C14.2069 11.5831 13.9735 11.7759 13.7065 11.9106C13.2816 12.125 12.7502 12.125 11.6875 12.125V12.125C10.6248 12.125 10.0934 12.125 9.66847 11.9106C9.40149 11.7759 9.1681 11.5831 8.9855 11.3463C8.69488 10.9694 8.59473 10.4475 8.39442 9.40383L8.31477 8.98879C8.2443 8.6216 8.20906 8.43801 8.13434 8.431C8.12813 8.43042 8.12187 8.43042 8.11566 8.431C8.04094 8.43801 8.0057 8.6216 7.93523 8.98879V8.98879C7.65781 10.4343 7.5191 11.157 7.02532 11.6055C6.97916 11.6474 6.93108 11.6872 6.88122 11.7246C6.34772 12.125 5.61177 12.125 4.13989 12.125H3.65698C2.43872 12.125 1.82958 12.125 1.52954 11.7264C1.2295 11.3278 1.39801 10.7424 1.73504 9.57171L3.75019 2.57171Z" stroke="#1F1F1F" stroke-width="2"/>
</svg>
